# xmcd
# 
# Track frame offsets:
#     150
#     15213
#     28045
#     42075
#     56215
#     66748
#     86958
#     97788
#     116942
#     129810
# 
# Disc length: 1927
# 
# Revision: 4
# Processed by: cddbd v1.5.2PL0 Copyright (c) Steve Scherf et al.
# Submitted via: BonkEnc v1.0.8
# 
DISCID=8207850a
DTITLE=George Strait - Ocean Front Property
DYEAR=1987
DGENRE=Country
TTITLE0=All My Ex's Live In Texas
TTITLE1=Someone's Walkin' Around Upstairs
TTITLE2=Am I Blue
TTITLE3=Ocean Front Property
TTITLE4=Hot Burning Flames
TTITLE5=Without You Here
TTITLE6=My Heart Won't Wander Very Far From You
TTITLE7=Second Chances
TTITLE8=You Can't Buy Your Way Out Of The Blues
TTITLE9=I'm All Behind You Now
EXTD=YEAR: 1987 ID3G:   2
EXTT0=
EXTT1=
EXTT2=
EXTT3=
EXTT4=
EXTT5=
EXTT6=
EXTT7=
EXTT8=
EXTT9=
PLAYORDER=
